<?xml version="1.0" standalone="no"?>
 <!DOCTYPE svg PUBLIC "-//W3C//DTD SVG 1.1//EN" 
 "http://www.w3.org/Graphics/SVG/1.1/DTD/svg11.dtd"> 
<svg
  xmlns:svg="http://www.w3.org/2000/svg"
  xmlns="http://www.w3.org/2000/svg"
  xmlns:xlink="http://www.w3.org/1999/xlink"
  version="1.1"
  width="29.700220cm" height="21.000720cm" viewBox="0 0 116930 82680">
<title>SVG Picture created as APRN-pi.svg date 2022/04/01 19:38:49 </title>
  <desc>Picture generated by Eeschema-SVG </desc>
<g style="fill:#000000; fill-opacity:1.000000;stroke:#000000; stroke-opacity:1.000000;
stroke-linecap:round; stroke-linejoin:round;"
 transform="translate(0 0) scale(1 1)">
</g>
<g style="fill:#840000; fill-opacity:0.0; 
stroke:#840000; stroke-width:0.000000; stroke-opacity:1; 
stroke-linecap:round; stroke-linejoin:round;">
</g>
<g style="fill:#840000; fill-opacity:0.0; 
stroke:#840000; stroke-width:60.000000; stroke-opacity:1; 
stroke-linecap:round; stroke-linejoin:round;">
<rect x="69685.905512" y="65357.165354" width="42519.685039" height="12598.425197" rx="0.000000" />
<rect x="3937.007874" y="3937.007874" width="109055.984252" height="74805.984252" rx="0.000000" />
<rect x="4724.409449" y="4724.409449" width="107481.181102" height="73231.181102" rx="0.000000" />
<path d="M23622 4724
L23622 3937
" />
<path d="M43307 4724
L43307 3937
" />
<path d="M62992 4724
L62992 3937
" />
<path d="M82677 4724
L82677 3937
" />
<path d="M102362 4724
L102362 3937
" />
<text x="13779.527559" y="4586.614173"
textLength="487.480315" font-size="682.401575" lengthAdjust="spacingAndGlyphs"
text-anchor="start" opacity="0">1</text>
<g class="stroked-text"><desc>1</desc>
<path d="M14199 4562
L13907 4562
" />
<path d="M14053 4562
L14053 4050
L14004 4123
L13955 4172
L13907 4196
" />
</g><text x="33464.566929" y="4586.614173"
textLength="547.440945" font-size="682.401575" lengthAdjust="spacingAndGlyphs"
text-anchor="start" opacity="0">2</text>
<g class="stroked-text"><desc>2</desc>
<path d="M33592 4099
L33616 4074
L33665 4050
L33787 4050
L33835 4074
L33860 4099
L33884 4147
L33884 4196
L33860 4269
L33567 4562
L33884 4562
" />
</g><text x="53149.606299" y="4586.614173"
textLength="547.440945" font-size="682.401575" lengthAdjust="spacingAndGlyphs"
text-anchor="start" opacity="0">3</text>
<g class="stroked-text"><desc>3</desc>
<path d="M53252 4050
L53569 4050
L53398 4245
L53472 4245
L53520 4269
L53545 4294
L53569 4342
L53569 4464
L53545 4513
L53520 4537
L53472 4562
L53325 4562
L53277 4537
L53252 4513
" />
</g><text x="72834.645669" y="4586.614173"
textLength="547.440945" font-size="682.401575" lengthAdjust="spacingAndGlyphs"
text-anchor="start" opacity="0">4</text>
<g class="stroked-text"><desc>4</desc>
<path d="M73205 4221
L73205 4562
" />
<path d="M73083 4026
L72962 4391
L73278 4391
" />
</g><text x="92519.685039" y="4586.614173"
textLength="547.440945" font-size="682.401575" lengthAdjust="spacingAndGlyphs"
text-anchor="start" opacity="0">5</text>
<g class="stroked-text"><desc>5</desc>
<path d="M92915 4050
L92671 4050
L92647 4294
L92671 4269
L92720 4245
L92842 4245
L92890 4269
L92915 4294
L92939 4342
L92939 4464
L92915 4513
L92890 4537
L92842 4562
L92720 4562
L92671 4537
L92647 4513
" />
</g><text x="112204.724409" y="4586.614173"
textLength="547.440945" font-size="682.401575" lengthAdjust="spacingAndGlyphs"
text-anchor="start" opacity="0">6</text>
<g class="stroked-text"><desc>6</desc>
<path d="M112575 4050
L112478 4050
L112429 4074
L112405 4099
L112356 4172
L112332 4269
L112332 4464
L112356 4513
L112380 4537
L112429 4562
L112527 4562
L112575 4537
L112600 4513
L112624 4464
L112624 4342
L112600 4294
L112575 4269
L112527 4245
L112429 4245
L112380 4269
L112356 4294
L112332 4342
" />
</g><path d="M23622 77955
L23622 78742
" />
<path d="M43307 77955
L43307 78742
" />
<path d="M62992 77955
L62992 78742
" />
<path d="M82677 77955
L82677 78742
" />
<path d="M102362 77955
L102362 78742
" />
<text x="13779.527559" y="78605.196850"
textLength="547.440945" font-size="682.401575" lengthAdjust="spacingAndGlyphs"
text-anchor="start" opacity="0">1</text>
<g class="stroked-text"><desc>1</desc>
<path d="M14199 78580
L13907 78580
" />
<path d="M14053 78580
L14053 78068
L14004 78142
L13955 78190
L13907 78215
" />
</g><text x="33464.566929" y="78605.196850"
textLength="547.440945" font-size="682.401575" lengthAdjust="spacingAndGlyphs"
text-anchor="start" opacity="0">2</text>
<g class="stroked-text"><desc>2</desc>
<path d="M33592 78117
L33616 78093
L33665 78068
L33787 78068
L33835 78093
L33860 78117
L33884 78166
L33884 78215
L33860 78288
L33567 78580
L33884 78580
" />
</g><text x="53149.606299" y="78605.196850"
textLength="547.440945" font-size="682.401575" lengthAdjust="spacingAndGlyphs"
text-anchor="start" opacity="0">3</text>
<g class="stroked-text"><desc>3</desc>
<path d="M53252 78068
L53569 78068
L53398 78263
L53472 78263
L53520 78288
L53545 78312
L53569 78361
L53569 78483
L53545 78532
L53520 78556
L53472 78580
L53325 78580
L53277 78556
L53252 78532
" />
</g><text x="72834.645669" y="78605.196850"
textLength="547.440945" font-size="682.401575" lengthAdjust="spacingAndGlyphs"
text-anchor="start" opacity="0">4</text>
<g class="stroked-text"><desc>4</desc>
<path d="M73205 78239
L73205 78580
" />
<path d="M73083 78044
L72962 78410
L73278 78410
" />
</g><text x="92519.685039" y="78605.196850"
textLength="547.440945" font-size="682.401575" lengthAdjust="spacingAndGlyphs"
text-anchor="start" opacity="0">5</text>
<g class="stroked-text"><desc>5</desc>
<path d="M92915 78068
L92671 78068
L92647 78312
L92671 78288
L92720 78263
L92842 78263
L92890 78288
L92915 78312
L92939 78361
L92939 78483
L92915 78532
L92890 78556
L92842 78580
L92720 78580
L92671 78556
L92647 78532
" />
</g><text x="112204.724409" y="78605.196850"
textLength="547.440945" font-size="682.401575" lengthAdjust="spacingAndGlyphs"
text-anchor="start" opacity="0">6</text>
<g class="stroked-text"><desc>6</desc>
<path d="M112575 78068
L112478 78068
L112429 78093
L112405 78117
L112356 78190
L112332 78288
L112332 78483
L112356 78532
L112380 78556
L112429 78580
L112527 78580
L112575 78556
L112600 78532
L112624 78483
L112624 78361
L112600 78312
L112575 78288
L112527 78263
L112429 78263
L112380 78288
L112356 78312
L112332 78361
" />
</g><path d="M3937 23622
L4724 23622
" />
<path d="M3937 43307
L4724 43307
" />
<path d="M3937 62992
L4724 62992
" />
<text x="4330.708661" y="14035.433071"
textLength="498.700787" font-size="682.401575" lengthAdjust="spacingAndGlyphs"
text-anchor="middle" opacity="0">A</text>
<g class="stroked-text"><desc>A</desc>
<path d="M4208 13864
L4452 13864
" />
<path d="M4160 14011
L4330 13499
L4501 14011
" />
</g><text x="4330.708661" y="33720.472441"
textLength="571.811024" font-size="682.401575" lengthAdjust="spacingAndGlyphs"
text-anchor="middle" opacity="0">B</text>
<g class="stroked-text"><desc>B</desc>
<path d="M4367 33427
L4440 33452
L4464 33476
L4489 33525
L4489 33598
L4464 33647
L4440 33671
L4391 33696
L4196 33696
L4196 33184
L4367 33184
L4415 33208
L4440 33233
L4464 33281
L4464 33330
L4440 33379
L4415 33403
L4367 33427
L4196 33427
" />
</g><text x="4330.708661" y="53405.511811"
textLength="571.811024" font-size="682.401575" lengthAdjust="spacingAndGlyphs"
text-anchor="middle" opacity="0">C</text>
<g class="stroked-text"><desc>C</desc>
<path d="M4489 53332
L4464 53356
L4391 53381
L4342 53381
L4269 53356
L4221 53307
L4196 53259
L4172 53161
L4172 53088
L4196 52991
L4221 52942
L4269 52893
L4342 52869
L4391 52869
L4464 52893
L4489 52918
" />
</g><text x="4330.708661" y="73090.551181"
textLength="571.811024" font-size="682.401575" lengthAdjust="spacingAndGlyphs"
text-anchor="middle" opacity="0">D</text>
<g class="stroked-text"><desc>D</desc>
<path d="M4196 73066
L4196 72554
L4318 72554
L4391 72578
L4440 72627
L4464 72676
L4489 72773
L4489 72846
L4464 72944
L4440 72993
L4391 73041
L4318 73066
L4196 73066
" />
</g><path d="M112992 23622
L112205 23622
" />
<path d="M112992 43307
L112205 43307
" />
<path d="M112992 62992
L112205 62992
" />
<text x="112599.291339" y="14035.433071"
textLength="498.700787" font-size="682.401575" lengthAdjust="spacingAndGlyphs"
text-anchor="middle" opacity="0">A</text>
<g class="stroked-text"><desc>A</desc>
<path d="M112477 13864
L112721 13864
" />
<path d="M112428 14011
L112599 13499
L112769 14011
" />
</g><text x="112599.291339" y="33720.472441"
textLength="571.811024" font-size="682.401575" lengthAdjust="spacingAndGlyphs"
text-anchor="middle" opacity="0">B</text>
<g class="stroked-text"><desc>B</desc>
<path d="M112635 33427
L112708 33452
L112733 33476
L112757 33525
L112757 33598
L112733 33647
L112708 33671
L112660 33696
L112465 33696
L112465 33184
L112635 33184
L112684 33208
L112708 33233
L112733 33281
L112733 33330
L112708 33379
L112684 33403
L112635 33427
L112465 33427
" />
</g><text x="112599.291339" y="53405.511811"
textLength="571.811024" font-size="682.401575" lengthAdjust="spacingAndGlyphs"
text-anchor="middle" opacity="0">C</text>
<g class="stroked-text"><desc>C</desc>
<path d="M112757 53332
L112733 53356
L112660 53381
L112611 53381
L112538 53356
L112489 53307
L112465 53259
L112440 53161
L112440 53088
L112465 52991
L112489 52942
L112538 52893
L112611 52869
L112660 52869
L112733 52893
L112757 52918
" />
</g><text x="112599.291339" y="73090.551181"
textLength="571.811024" font-size="682.401575" lengthAdjust="spacingAndGlyphs"
text-anchor="middle" opacity="0">D</text>
<g class="stroked-text"><desc>D</desc>
<path d="M112465 73066
L112465 72554
L112587 72554
L112660 72578
L112708 72627
L112733 72676
L112757 72773
L112757 72846
L112733 72944
L112708 72993
L112660 73041
L112587 73066
L112465 73066
" />
</g><text x="78741.023622" y="76321.732283"
textLength="8721.417323" font-size="787.401575" lengthAdjust="spacingAndGlyphs"
text-anchor="start" opacity="0">Date: 2022-04-01</text>
<g class="stroked-text"><desc>Date: 2022-04-01</desc>
<path d="M78911 76293
L78911 75703
L79052 75703
L79136 75731
L79192 75787
L79220 75843
L79249 75956
L79249 76040
L79220 76152
L79192 76209
L79136 76265
L79052 76293
L78911 76293
" />
<path d="M79755 76293
L79755 75984
L79727 75928
L79670 75899
L79558 75899
L79502 75928
" />
<path d="M79755 76265
L79699 76293
L79558 76293
L79502 76265
L79474 76209
L79474 76152
L79502 76096
L79558 76068
L79699 76068
L79755 76040
" />
<path d="M79952 75899
L80177 75899
" />
<path d="M80036 75703
L80036 76209
L80064 76265
L80120 76293
L80177 76293
" />
<path d="M80598 76265
L80542 76293
L80430 76293
L80373 76265
L80345 76209
L80345 75984
L80373 75928
L80430 75899
L80542 75899
L80598 75928
L80627 75984
L80627 76040
L80345 76096
" />
<path d="M80880 76237
L80908 76265
L80880 76293
L80852 76265
L80880 76237
L80880 76293
" />
<path d="M80880 75928
L80908 75956
L80880 75984
L80852 75956
L80880 75928
L80880 75984
" />
<path d="M81583 75759
L81611 75731
L81667 75703
L81808 75703
L81864 75731
L81892 75759
L81920 75815
L81920 75871
L81892 75956
L81555 76293
L81920 76293
" />
<path d="M82286 75703
L82342 75703
L82398 75731
L82426 75759
L82454 75815
L82483 75928
L82483 76068
L82454 76181
L82426 76237
L82398 76265
L82342 76293
L82286 76293
L82229 76265
L82201 76237
L82173 76181
L82145 76068
L82145 75928
L82173 75815
L82201 75759
L82229 75731
L82286 75703
" />
<path d="M82708 75759
L82736 75731
L82792 75703
L82932 75703
L82989 75731
L83017 75759
L83045 75815
L83045 75871
L83017 75956
L82679 76293
L83045 76293
" />
<path d="M83270 75759
L83298 75731
L83354 75703
L83495 75703
L83551 75731
L83579 75759
L83607 75815
L83607 75871
L83579 75956
L83242 76293
L83607 76293
" />
<path d="M83860 76068
L84310 76068
" />
<path d="M84704 75703
L84760 75703
L84817 75731
L84845 75759
L84873 75815
L84901 75928
L84901 76068
L84873 76181
L84845 76237
L84817 76265
L84760 76293
L84704 76293
L84648 76265
L84620 76237
L84592 76181
L84564 76068
L84564 75928
L84592 75815
L84620 75759
L84648 75731
L84704 75703
" />
<path d="M85407 75899
L85407 76293
" />
<path d="M85267 75674
L85126 76096
L85492 76096
" />
<path d="M85717 76068
L86166 76068
" />
<path d="M86560 75703
L86616 75703
L86673 75731
L86701 75759
L86729 75815
L86757 75928
L86757 76068
L86729 76181
L86701 76237
L86673 76265
L86616 76293
L86560 76293
L86504 76265
L86476 76237
L86448 76181
L86420 76068
L86420 75928
L86448 75815
L86476 75759
L86504 75731
L86560 75703
" />
<path d="M87319 76293
L86982 76293
" />
<path d="M87151 76293
L87151 75703
L87094 75787
L87038 75843
L86982 75871
" />
</g><path d="M69685 76577
L112205 76577
" />
<text x="70079.606299" y="77424.094488"
textLength="21826.023622" font-size="787.401575" lengthAdjust="spacingAndGlyphs"
text-anchor="start" opacity="0">KiCad E.D.A.  eeschema 6.0.2+dfsg-1~bpo11+1</text>
<g class="stroked-text"><desc>KiCad E.D.A.  eeschema 6.0.2+dfsg-1~bpo11+1</desc>
<path d="M70250 77395
L70250 76805
" />
<path d="M70587 77395
L70334 77058
" />
<path d="M70587 76805
L70250 77142
" />
<path d="M70840 77395
L70840 77002
" />
<path d="M70840 76805
L70812 76833
L70840 76861
L70868 76833
L70840 76805
L70840 76861
" />
<path d="M71459 77339
L71431 77367
L71346 77395
L71290 77395
L71206 77367
L71150 77311
L71121 77255
L71093 77142
L71093 77058
L71121 76946
L71150 76889
L71206 76833
L71290 76805
L71346 76805
L71431 76833
L71459 76861
" />
<path d="M71965 77395
L71965 77086
L71937 77030
L71881 77002
L71768 77002
L71712 77030
" />
<path d="M71965 77367
L71909 77395
L71768 77395
L71712 77367
L71684 77311
L71684 77255
L71712 77199
L71768 77170
L71909 77170
L71965 77142
" />
<path d="M72499 77395
L72499 76805
" />
<path d="M72499 77367
L72443 77395
L72331 77395
L72274 77367
L72246 77339
L72218 77283
L72218 77114
L72246 77058
L72274 77030
L72331 77002
L72443 77002
L72499 77030
" />
<path d="M73231 77086
L73427 77086
" />
<path d="M73512 77395
L73231 77395
L73231 76805
L73512 76805
" />
<path d="M73765 77339
L73793 77367
L73765 77395
L73737 77367
L73765 77339
L73765 77395
" />
<path d="M74046 77395
L74046 76805
L74187 76805
L74271 76833
L74327 76889
L74355 76946
L74384 77058
L74384 77142
L74355 77255
L74327 77311
L74271 77367
L74187 77395
L74046 77395
" />
<path d="M74637 77339
L74665 77367
L74637 77395
L74609 77367
L74637 77339
L74637 77395
" />
<path d="M74890 77227
L75171 77227
" />
<path d="M74834 77395
L75030 76805
L75227 77395
" />
<path d="M75424 77339
L75452 77367
L75424 77395
L75396 77367
L75424 77339
L75424 77395
" />
<path d="M76830 77367
L76774 77395
L76661 77395
L76605 77367
L76577 77311
L76577 77086
L76605 77030
L76661 77002
L76774 77002
L76830 77030
L76858 77086
L76858 77142
L76577 77199
" />
<path d="M77336 77367
L77280 77395
L77168 77395
L77111 77367
L77083 77311
L77083 77086
L77111 77030
L77168 77002
L77280 77002
L77336 77030
L77364 77086
L77364 77142
L77083 77199
" />
<path d="M77589 77367
L77646 77395
L77758 77395
L77814 77367
L77842 77311
L77842 77283
L77814 77227
L77758 77199
L77674 77199
L77618 77170
L77589 77114
L77589 77086
L77618 77030
L77674 77002
L77758 77002
L77814 77030
" />
<path d="M78349 77367
L78292 77395
L78180 77395
L78124 77367
L78096 77339
L78067 77283
L78067 77114
L78096 77058
L78124 77030
L78180 77002
L78292 77002
L78349 77030
" />
<path d="M78602 77395
L78602 76805
" />
<path d="M78855 77395
L78855 77086
L78827 77030
L78771 77002
L78686 77002
L78630 77030
L78602 77058
" />
<path d="M79361 77367
L79305 77395
L79192 77395
L79136 77367
L79108 77311
L79108 77086
L79136 77030
L79192 77002
L79305 77002
L79361 77030
L79389 77086
L79389 77142
L79108 77199
" />
<path d="M79642 77395
L79642 77002
" />
<path d="M79642 77058
L79670 77030
L79727 77002
L79811 77002
L79867 77030
L79895 77086
L79895 77395
" />
<path d="M79895 77086
L79923 77030
L79980 77002
L80064 77002
L80120 77030
L80148 77086
L80148 77395
" />
<path d="M80683 77395
L80683 77086
L80655 77030
L80598 77002
L80486 77002
L80430 77030
" />
<path d="M80683 77367
L80627 77395
L80486 77395
L80430 77367
L80402 77311
L80402 77255
L80430 77199
L80486 77170
L80627 77170
L80683 77142
" />
<path d="M81667 76805
L81555 76805
L81498 76833
L81470 76861
L81414 76946
L81386 77058
L81386 77283
L81414 77339
L81442 77367
L81498 77395
L81611 77395
L81667 77367
L81695 77339
L81723 77283
L81723 77142
L81695 77086
L81667 77058
L81611 77030
L81498 77030
L81442 77058
L81414 77086
L81386 77142
" />
<path d="M81976 77339
L82004 77367
L81976 77395
L81948 77367
L81976 77339
L81976 77395
" />
<path d="M82370 76805
L82426 76805
L82483 76833
L82511 76861
L82539 76917
L82567 77030
L82567 77170
L82539 77283
L82511 77339
L82483 77367
L82426 77395
L82370 77395
L82314 77367
L82286 77339
L82258 77283
L82229 77170
L82229 77030
L82258 76917
L82286 76861
L82314 76833
L82370 76805
" />
<path d="M82820 77339
L82848 77367
L82820 77395
L82792 77367
L82820 77339
L82820 77395
" />
<path d="M83073 76861
L83101 76833
L83157 76805
L83298 76805
L83354 76833
L83382 76861
L83411 76917
L83411 76974
L83382 77058
L83045 77395
L83411 77395
" />
<path d="M83664 77170
L84114 77170
" />
<path d="M83889 77395
L83889 76946
" />
<path d="M84648 77395
L84648 76805
" />
<path d="M84648 77367
L84592 77395
L84479 77395
L84423 77367
L84395 77339
L84367 77283
L84367 77114
L84395 77058
L84423 77030
L84479 77002
L84592 77002
L84648 77030
" />
<path d="M84845 77002
L85070 77002
" />
<path d="M84929 77395
L84929 76889
L84957 76833
L85013 76805
L85070 76805
" />
<path d="M85238 77367
L85295 77395
L85407 77395
L85463 77367
L85492 77311
L85492 77283
L85463 77227
L85407 77199
L85323 77199
L85267 77170
L85238 77114
L85238 77086
L85267 77030
L85323 77002
L85407 77002
L85463 77030
" />
<path d="M85998 77002
L85998 77480
L85970 77536
L85941 77564
L85885 77592
L85801 77592
L85745 77564
" />
<path d="M85998 77367
L85941 77395
L85829 77395
L85773 77367
L85745 77339
L85717 77283
L85717 77114
L85745 77058
L85773 77030
L85829 77002
L85941 77002
L85998 77030
" />
<path d="M86279 77170
L86729 77170
" />
<path d="M87319 77395
L86982 77395
" />
<path d="M87151 77395
L87151 76805
L87094 76889
L87038 76946
L86982 76974
" />
<path d="M87488 77170
L87516 77142
L87573 77114
L87685 77170
L87741 77142
L87769 77114
" />
<path d="M87994 77395
L87994 76805
" />
<path d="M87994 77030
L88051 77002
L88163 77002
L88219 77030
L88247 77058
L88276 77114
L88276 77283
L88247 77339
L88219 77367
L88163 77395
L88051 77395
L87994 77367
" />
<path d="M88529 77002
L88529 77592
" />
<path d="M88529 77030
L88585 77002
L88697 77002
L88754 77030
L88782 77058
L88810 77114
L88810 77283
L88782 77339
L88754 77367
L88697 77395
L88585 77395
L88529 77367
" />
<path d="M89147 77395
L89091 77367
L89063 77339
L89035 77283
L89035 77114
L89063 77058
L89091 77030
L89147 77002
L89232 77002
L89288 77030
L89316 77058
L89344 77114
L89344 77283
L89316 77339
L89288 77367
L89232 77395
L89147 77395
" />
<path d="M89907 77395
L89569 77395
" />
<path d="M89738 77395
L89738 76805
L89682 76889
L89625 76946
L89569 76974
" />
<path d="M90469 77395
L90132 77395
" />
<path d="M90300 77395
L90300 76805
L90244 76889
L90188 76946
L90132 76974
" />
<path d="M90722 77170
L91172 77170
" />
<path d="M90947 77395
L90947 76946
" />
<path d="M91763 77395
L91425 77395
" />
<path d="M91594 77395
L91594 76805
L91538 76889
L91481 76946
L91425 76974
" />
</g><path d="M69685 75396
L112205 75396
" />
</g>
<g style="fill:#840000; fill-opacity:0.0; 
stroke:#840000; stroke-width:118.110236; stroke-opacity:1; 
stroke-linecap:round; stroke-linejoin:round;">
<text x="103544.173228" y="76321.732283"
textLength="5740.551181" font-size="787.401575" lengthAdjust="spacingAndGlyphs"
text-anchor="start" opacity="0">Rev: 17fbef6</text>
<g class="stroked-text"><desc>Rev: 17fbef6</desc>
<path d="M104098 76293
L103902 76012
" />
<path d="M103761 76293
L103761 75703
L103986 75703
L104042 75731
L104070 75759
L104098 75815
L104098 75899
L104070 75956
L104042 75984
L103986 76012
L103761 76012
" />
<path d="M104577 76265
L104520 76293
L104408 76293
L104352 76265
L104323 76209
L104323 75984
L104352 75928
L104408 75899
L104520 75899
L104577 75928
L104605 75984
L104605 76040
L104323 76096
" />
<path d="M104802 75899
L104942 76293
L105083 75899
" />
<path d="M105308 76237
L105336 76265
L105308 76293
L105280 76265
L105308 76237
L105308 76293
" />
<path d="M105308 75928
L105336 75956
L105308 75984
L105280 75956
L105308 75928
L105308 75984
" />
<path d="M106348 76293
L106011 76293
" />
<path d="M106180 76293
L106180 75703
L106123 75787
L106067 75843
L106011 75871
" />
<path d="M106545 75703
L106939 75703
L106686 76293
" />
<path d="M107079 75899
L107304 75899
" />
<path d="M107164 76293
L107164 75787
L107192 75731
L107248 75703
L107304 75703
" />
<path d="M107501 76293
L107501 75703
" />
<path d="M107501 75928
L107557 75899
L107670 75899
L107726 75928
L107754 75956
L107782 76012
L107782 76181
L107754 76237
L107726 76265
L107670 76293
L107557 76293
L107501 76265
" />
<path d="M108260 76265
L108204 76293
L108092 76293
L108035 76265
L108007 76209
L108007 75984
L108035 75928
L108092 75899
L108204 75899
L108260 75928
L108289 75984
L108289 76040
L108007 76096
" />
<path d="M108457 75899
L108682 75899
" />
<path d="M108542 76293
L108542 75787
L108570 75731
L108626 75703
L108682 75703
" />
<path d="M109132 75703
L109020 75703
L108964 75731
L108935 75759
L108879 75843
L108851 75956
L108851 76181
L108879 76237
L108907 76265
L108964 76293
L109076 76293
L109132 76265
L109160 76237
L109188 76181
L109188 76040
L109160 75984
L109132 75956
L109076 75928
L108964 75928
L108907 75956
L108879 75984
L108851 76040
" />
</g></g>
<g style="fill:#840000; fill-opacity:0.0; 
stroke:#840000; stroke-width:60.000000; stroke-opacity:1; 
stroke-linecap:round; stroke-linejoin:round;">
<text x="70079.606299" y="76321.732283"
textLength="3781.220472" font-size="787.401575" lengthAdjust="spacingAndGlyphs"
text-anchor="start" opacity="0">Size: A4</text>
<g class="stroked-text"><desc>Size: A4</desc>
<path d="M70222 76265
L70306 76293
L70447 76293
L70503 76265
L70531 76237
L70559 76181
L70559 76124
L70531 76068
L70503 76040
L70447 76012
L70334 75984
L70278 75956
L70250 75928
L70222 75871
L70222 75815
L70250 75759
L70278 75731
L70334 75703
L70475 75703
L70559 75731
" />
<path d="M70812 76293
L70812 75899
" />
<path d="M70812 75703
L70784 75731
L70812 75759
L70840 75731
L70812 75703
L70812 75759
" />
<path d="M71037 75899
L71346 75899
L71037 76293
L71346 76293
" />
<path d="M71796 76265
L71740 76293
L71628 76293
L71571 76265
L71543 76209
L71543 75984
L71571 75928
L71628 75899
L71740 75899
L71796 75928
L71825 75984
L71825 76040
L71543 76096
" />
<path d="M72078 76237
L72106 76265
L72078 76293
L72049 76265
L72078 76237
L72078 76293
" />
<path d="M72078 75928
L72106 75956
L72078 75984
L72049 75956
L72078 75928
L72078 75984
" />
<path d="M72781 76124
L73062 76124
" />
<path d="M72724 76293
L72921 75703
L73118 76293
" />
<path d="M73568 75899
L73568 76293
" />
<path d="M73427 75674
L73287 76096
L73652 76096
" />
</g><text x="103544.173228" y="77424.094488"
textLength="3350.196850" font-size="787.401575" lengthAdjust="spacingAndGlyphs"
text-anchor="start" opacity="0">Id: 1/1</text>
<g class="stroked-text"><desc>Id: 1/1</desc>
<path d="M103714 77395
L103714 76805
" />
<path d="M104249 77395
L104249 76805
" />
<path d="M104249 77367
L104192 77395
L104080 77395
L104024 77367
L103995 77339
L103967 77283
L103967 77114
L103995 77058
L104024 77030
L104080 77002
L104192 77002
L104249 77030
" />
<path d="M104530 77339
L104558 77367
L104530 77395
L104502 77367
L104530 77339
L104530 77395
" />
<path d="M104530 77030
L104558 77058
L104530 77086
L104502 77058
L104530 77030
L104530 77086
" />
<path d="M105570 77395
L105233 77395
" />
<path d="M105402 77395
L105402 76805
L105345 76889
L105289 76946
L105233 76974
" />
<path d="M106245 76777
L105739 77536
" />
<path d="M106751 77395
L106414 77395
" />
<path d="M106583 77395
L106583 76805
L106526 76889
L106470 76946
L106414 76974
" />
</g><path d="M69685 73821
L112205 73821
" />
</g>
<g style="fill:#840000; fill-opacity:0.0; 
stroke:#840000; stroke-width:157.480315; stroke-opacity:1; 
stroke-linecap:round; stroke-linejoin:round;">
<text x="70079.606299" y="74924.094488"
textLength="8917.362205" font-size="1049.842520" lengthAdjust="spacingAndGlyphs"
text-anchor="start" opacity="0">Title: APRN-Pi</text>
<g class="stroked-text"><desc>Title: APRN-Pi</desc>
<path d="M70360 74099
L70810 74099
" />
<path d="M70486 74886
L70585 74099
" />
<path d="M70974 74886
L71039 74361
" />
<path d="M71072 74099
L71030 74136
L71063 74174
L71105 74136
L71072 74099
L71063 74174
" />
<path d="M71302 74361
L71602 74361
" />
<path d="M71447 74099
L71363 74774
L71391 74849
L71461 74886
L71536 74886
" />
<path d="M71911 74886
L71841 74849
L71812 74774
L71897 74099
" />
<path d="M72516 74849
L72436 74886
L72286 74886
L72216 74849
L72187 74774
L72225 74474
L72272 74399
L72352 74361
L72501 74361
L72572 74399
L72600 74474
L72591 74549
L72206 74624
" />
<path d="M72895 74811
L72928 74849
L72886 74886
L72853 74849
L72895 74811
L72886 74886
" />
<path d="M72947 74399
L72980 74436
L72937 74474
L72905 74436
L72947 74399
L72937 74474
" />
<path d="M73851 74661
L74226 74661
" />
<path d="M73748 74886
L74109 74099
L74273 74886
" />
<path d="M74536 74886
L74634 74099
L74934 74099
L75004 74136
L75037 74174
L75065 74249
L75051 74361
L75004 74436
L74962 74474
L74882 74511
L74582 74511
" />
<path d="M75773 74886
L75557 74511
" />
<path d="M75323 74886
L75421 74099
L75721 74099
L75792 74136
L75825 74174
L75853 74249
L75839 74361
L75792 74436
L75750 74474
L75670 74511
L75370 74511
" />
<path d="M76110 74886
L76209 74099
L76560 74886
L76659 74099
" />
<path d="M76973 74586
L77573 74586
" />
<path d="M77910 74886
L78009 74099
L78309 74099
L78379 74136
L78412 74174
L78440 74249
L78426 74361
L78379 74436
L78337 74474
L78257 74511
L77957 74511
" />
<path d="M78698 74886
L78763 74361
" />
<path d="M78796 74099
L78754 74136
L78787 74174
L78829 74136
L78796 74099
L78787 74174
" />
</g></g>
<g style="fill:#840000; fill-opacity:0.0; 
stroke:#840000; stroke-width:60.000000; stroke-opacity:1; 
stroke-linecap:round; stroke-linejoin:round;">
<text x="70079.606299" y="73408.346457"
textLength="10975.236220" font-size="787.401575" lengthAdjust="spacingAndGlyphs"
text-anchor="start" opacity="0">File: APRN-pi.kicad_sch</text>
<g class="stroked-text"><desc>File: APRN-pi.kicad_sch</desc>
<path d="M70447 73070
L70250 73070
" />
<path d="M70250 73380
L70250 72789
L70531 72789
" />
<path d="M70756 73380
L70756 72986
" />
<path d="M70756 72789
L70728 72817
L70756 72845
L70784 72817
L70756 72789
L70756 72845
" />
<path d="M71121 73380
L71065 73352
L71037 73295
L71037 72789
" />
<path d="M71571 73352
L71515 73380
L71403 73380
L71346 73352
L71318 73295
L71318 73070
L71346 73014
L71403 72986
L71515 72986
L71571 73014
L71600 73070
L71600 73127
L71318 73183
" />
<path d="M71853 73323
L71881 73352
L71853 73380
L71825 73352
L71853 73323
L71853 73380
" />
<path d="M71853 73014
L71881 73042
L71853 73070
L71825 73042
L71853 73014
L71853 73070
" />
<path d="M72556 73211
L72837 73211
" />
<path d="M72499 73380
L72696 72789
L72893 73380
" />
<path d="M73090 73380
L73090 72789
L73315 72789
L73371 72817
L73399 72845
L73427 72902
L73427 72986
L73399 73042
L73371 73070
L73315 73098
L73090 73098
" />
<path d="M74018 73380
L73821 73098
" />
<path d="M73681 73380
L73681 72789
L73905 72789
L73962 72817
L73990 72845
L74018 72902
L74018 72986
L73990 73042
L73962 73070
L73905 73098
L73681 73098
" />
<path d="M74271 73380
L74271 72789
L74609 73380
L74609 72789
" />
<path d="M74890 73155
L75340 73155
" />
<path d="M75621 72986
L75621 73577
" />
<path d="M75621 73014
L75677 72986
L75790 72986
L75846 73014
L75874 73042
L75902 73098
L75902 73267
L75874 73323
L75846 73352
L75790 73380
L75677 73380
L75621 73352
" />
<path d="M76155 73380
L76155 72986
" />
<path d="M76155 72789
L76127 72817
L76155 72845
L76183 72817
L76155 72789
L76155 72845
" />
<path d="M76436 73323
L76465 73352
L76436 73380
L76408 73352
L76436 73323
L76436 73380
" />
<path d="M76718 73380
L76718 72789
" />
<path d="M76774 73155
L76943 73380
" />
<path d="M76943 72986
L76718 73211
" />
<path d="M77196 73380
L77196 72986
" />
<path d="M77196 72789
L77168 72817
L77196 72845
L77224 72817
L77196 72789
L77196 72845
" />
<path d="M77730 73352
L77674 73380
L77561 73380
L77505 73352
L77477 73323
L77449 73267
L77449 73098
L77477 73042
L77505 73014
L77561 72986
L77674 72986
L77730 73014
" />
<path d="M78236 73380
L78236 73070
L78208 73014
L78152 72986
L78039 72986
L77983 73014
" />
<path d="M78236 73352
L78180 73380
L78039 73380
L77983 73352
L77955 73295
L77955 73239
L77983 73183
L78039 73155
L78180 73155
L78236 73127
" />
<path d="M78771 73380
L78771 72789
" />
<path d="M78771 73352
L78714 73380
L78602 73380
L78546 73352
L78517 73323
L78489 73267
L78489 73098
L78517 73042
L78546 73014
L78602 72986
L78714 72986
L78771 73014
" />
<path d="M78911 73436
L79361 73436
" />
<path d="M79474 73352
L79530 73380
L79642 73380
L79699 73352
L79727 73295
L79727 73267
L79699 73211
L79642 73183
L79558 73183
L79502 73155
L79474 73098
L79474 73070
L79502 73014
L79558 72986
L79642 72986
L79699 73014
" />
<path d="M80233 73352
L80177 73380
L80064 73380
L80008 73352
L79980 73323
L79952 73267
L79952 73098
L79980 73042
L80008 73014
L80064 72986
L80177 72986
L80233 73014
" />
<path d="M80486 73380
L80486 72789
" />
<path d="M80739 73380
L80739 73070
L80711 73014
L80655 72986
L80570 72986
L80514 73014
L80486 73042
" />
</g><path d="M69685 71459
L112205 71459
" />
<text x="70079.606299" y="72345.354331"
textLength="3856.417323" font-size="787.401575" lengthAdjust="spacingAndGlyphs"
text-anchor="start" opacity="0">Sheet: /</text>
<g class="stroked-text"><desc>Sheet: /</desc>
<path d="M70222 72289
L70306 72317
L70447 72317
L70503 72289
L70531 72260
L70559 72204
L70559 72148
L70531 72092
L70503 72064
L70447 72035
L70334 72007
L70278 71979
L70250 71951
L70222 71895
L70222 71839
L70250 71782
L70278 71754
L70334 71726
L70475 71726
L70559 71754
" />
<path d="M70812 72317
L70812 71726
" />
<path d="M71065 72317
L71065 72007
L71037 71951
L70981 71923
L70897 71923
L70840 71951
L70812 71979
" />
<path d="M71571 72289
L71515 72317
L71403 72317
L71346 72289
L71318 72232
L71318 72007
L71346 71951
L71403 71923
L71515 71923
L71571 71951
L71600 72007
L71600 72064
L71318 72120
" />
<path d="M72078 72289
L72021 72317
L71909 72317
L71853 72289
L71825 72232
L71825 72007
L71853 71951
L71909 71923
L72021 71923
L72078 71951
L72106 72007
L72106 72064
L71825 72120
" />
<path d="M72274 71923
L72499 71923
" />
<path d="M72359 71726
L72359 72232
L72387 72289
L72443 72317
L72499 72317
" />
<path d="M72696 72260
L72724 72289
L72696 72317
L72668 72289
L72696 72260
L72696 72317
" />
<path d="M72696 71951
L72724 71979
L72696 72007
L72668 71979
L72696 71951
L72696 72007
" />
<path d="M73849 71698
L73343 72457
" />
</g></g>
<g style="fill:#840000; fill-opacity:0.0; 
stroke:#840000; stroke-width:118.110236; stroke-opacity:1; 
stroke-linecap:round; stroke-linejoin:round;">
<text x="70079.606299" y="71164.251969"
textLength="60.000000" font-size="787.401575" lengthAdjust="spacingAndGlyphs"
text-anchor="start" opacity="0"></text>
<g class="stroked-text"><desc></desc>
</g></g>
<g style="fill:#840000; fill-opacity:0.0; 
stroke:#840000; stroke-width:60.000000; stroke-opacity:1; 
stroke-linecap:round; stroke-linejoin:round;">
<text x="70079.606299" y="69983.149606"
textLength="118.110236" font-size="787.401575" lengthAdjust="spacingAndGlyphs"
text-anchor="start" opacity="0"></text>
<g class="stroked-text"><desc></desc>
</g><text x="70079.606299" y="68802.047244"
textLength="60.000000" font-size="787.401575" lengthAdjust="spacingAndGlyphs"
text-anchor="start" opacity="0"></text>
<g class="stroked-text"><desc></desc>
</g><text x="70079.606299" y="67620.944882"
textLength="60.000000" font-size="787.401575" lengthAdjust="spacingAndGlyphs"
text-anchor="start" opacity="0"></text>
<g class="stroked-text"><desc></desc>
</g><text x="70079.606299" y="66439.842520"
textLength="7624.685039" font-size="787.401575" lengthAdjust="spacingAndGlyphs"
text-anchor="start" opacity="0">Release: 17fbef6</text>
<g class="stroked-text"><desc>Release: 17fbef6</desc>
<path d="M70587 66411
L70390 66130
" />
<path d="M70250 66411
L70250 65821
L70475 65821
L70531 65849
L70559 65877
L70587 65933
L70587 66017
L70559 66074
L70531 66102
L70475 66130
L70250 66130
" />
<path d="M71065 66383
L71009 66411
L70897 66411
L70840 66383
L70812 66327
L70812 66102
L70840 66046
L70897 66017
L71009 66017
L71065 66046
L71093 66102
L71093 66158
L70812 66214
" />
<path d="M71431 66411
L71375 66383
L71346 66327
L71346 65821
" />
<path d="M71881 66383
L71825 66411
L71712 66411
L71656 66383
L71628 66327
L71628 66102
L71656 66046
L71712 66017
L71825 66017
L71881 66046
L71909 66102
L71909 66158
L71628 66214
" />
<path d="M72415 66411
L72415 66102
L72387 66046
L72331 66017
L72218 66017
L72162 66046
" />
<path d="M72415 66383
L72359 66411
L72218 66411
L72162 66383
L72134 66327
L72134 66271
L72162 66214
L72218 66186
L72359 66186
L72415 66158
" />
<path d="M72668 66383
L72724 66411
L72837 66411
L72893 66383
L72921 66327
L72921 66299
L72893 66242
L72837 66214
L72752 66214
L72696 66186
L72668 66130
L72668 66102
L72696 66046
L72752 66017
L72837 66017
L72893 66046
" />
<path d="M73399 66383
L73343 66411
L73231 66411
L73174 66383
L73146 66327
L73146 66102
L73174 66046
L73231 66017
L73343 66017
L73399 66046
L73427 66102
L73427 66158
L73146 66214
" />
<path d="M73681 66355
L73709 66383
L73681 66411
L73652 66383
L73681 66355
L73681 66411
" />
<path d="M73681 66046
L73709 66074
L73681 66102
L73652 66074
L73681 66046
L73681 66102
" />
<path d="M74721 66411
L74384 66411
" />
<path d="M74552 66411
L74552 65821
L74496 65905
L74440 65961
L74384 65989
" />
<path d="M74918 65821
L75312 65821
L75058 66411
" />
<path d="M75452 66017
L75677 66017
" />
<path d="M75537 66411
L75537 65905
L75565 65849
L75621 65821
L75677 65821
" />
<path d="M75874 66411
L75874 65821
" />
<path d="M75874 66046
L75930 66017
L76043 66017
L76099 66046
L76127 66074
L76155 66130
L76155 66299
L76127 66355
L76099 66383
L76043 66411
L75930 66411
L75874 66383
" />
<path d="M76633 66383
L76577 66411
L76465 66411
L76408 66383
L76380 66327
L76380 66102
L76408 66046
L76465 66017
L76577 66017
L76633 66046
L76661 66102
L76661 66158
L76380 66214
" />
<path d="M76830 66017
L77055 66017
" />
<path d="M76915 66411
L76915 65905
L76943 65849
L76999 65821
L77055 65821
" />
<path d="M77505 65821
L77393 65821
L77336 65849
L77308 65877
L77252 65961
L77224 66074
L77224 66299
L77252 66355
L77280 66383
L77336 66411
L77449 66411
L77505 66383
L77533 66355
L77561 66299
L77561 66158
L77533 66102
L77505 66074
L77449 66046
L77336 66046
L77280 66074
L77252 66102
L77224 66158
" />
</g><path d="M77559 75396
L77559 76577
" />
<path d="M102756 75396
L102756 77955
" />
<g >
<rect x="93000.000000" y="11500.000000" width="5000.000000" height="9500.000000" rx="0.000000" />
<path d="M98000 12000
L99000 12000
" />
</g>
<g style="fill:#006464; fill-opacity:0.0; 
stroke:#006464; stroke-width:60.000000; stroke-opacity:1; 
stroke-linecap:round; stroke-linejoin:round;">
<text x="97800.000000" y="12250.000000"
textLength="1060.000000" font-size="666.653543" lengthAdjust="spacingAndGlyphs"
text-anchor="end" opacity="0">SQ</text>
<g class="stroked-text"><desc>SQ</desc>
<path d="M96865 12202
L96936 12226
L97055 12226
L97103 12202
L97127 12178
L97150 12130
L97150 12083
L97127 12035
L97103 12011
L97055 11988
L96960 11964
L96912 11940
L96889 11916
L96865 11869
L96865 11821
L96889 11773
L96912 11750
L96960 11726
L97079 11726
L97150 11750
" />
<path d="M97698 12273
L97650 12250
L97603 12202
L97531 12130
L97484 12107
L97436 12107
" />
<path d="M97460 12226
L97412 12202
L97365 12154
L97341 12059
L97341 11892
L97365 11797
L97412 11750
L97460 11726
L97555 11726
L97603 11750
L97650 11797
L97674 11892
L97674 12059
L97650 12154
L97603 12202
L97555 12226
L97460 12226
" />
</g></g>
<g style="fill:#A90000; fill-opacity:0.0; 
stroke:#A90000; stroke-width:60.000000; stroke-opacity:1; 
stroke-linecap:round; stroke-linejoin:round;">
<text x="98500.000000" y="11900.000000"
textLength="536.181102" font-size="666.653543" lengthAdjust="spacingAndGlyphs"
text-anchor="middle" opacity="0">1</text>
<g class="stroked-text"><desc>1</desc>
<path d="M98642 11876
L98357 11876
" />
<path d="M98500 11876
L98500 11376
L98452 11447
L98404 11495
L98357 11519
" />
</g></g>
<g style="fill:#840000; fill-opacity:0.0; 
stroke:#840000; stroke-width:60.000000; stroke-opacity:1; 
stroke-linecap:round; stroke-linejoin:round;">
<path d="M93000 20000
L92000 20000
" />
</g>
<g style="fill:#006464; fill-opacity:0.0; 
stroke:#006464; stroke-width:60.000000; stroke-opacity:1; 
stroke-linecap:round; stroke-linejoin:round;">
<text x="93200.000000" y="20250.000000"
textLength="1583.818898" font-size="666.653543" lengthAdjust="spacingAndGlyphs"
text-anchor="start" opacity="0">GND</text>
<g class="stroked-text"><desc>GND</desc>
<path d="M93610 19750
L93563 19726
L93491 19726
L93420 19750
L93372 19797
L93349 19845
L93325 19940
L93325 20011
L93349 20107
L93372 20154
L93420 20202
L93491 20226
L93539 20226
L93610 20202
L93634 20178
L93634 20011
L93539 20011
" />
<path d="M93849 20226
L93849 19726
L94134 20226
L94134 19726
" />
<path d="M94372 20226
L94372 19726
L94491 19726
L94563 19750
L94610 19797
L94634 19845
L94658 19940
L94658 20011
L94634 20107
L94610 20154
L94563 20202
L94491 20226
L94372 20226
" />
</g></g>
<g style="fill:#A90000; fill-opacity:0.0; 
stroke:#A90000; stroke-width:60.000000; stroke-opacity:1; 
stroke-linecap:round; stroke-linejoin:round;">
<text x="92500.000000" y="19900.000000"
textLength="1012.362205" font-size="666.653543" lengthAdjust="spacingAndGlyphs"
text-anchor="middle" opacity="0">10</text>
<g class="stroked-text"><desc>10</desc>
<path d="M92404 19876
L92119 19876
" />
<path d="M92261 19876
L92261 19376
L92214 19447
L92166 19495
L92119 19519
" />
<path d="M92714 19376
L92761 19376
L92809 19400
L92833 19423
L92857 19471
L92880 19566
L92880 19685
L92857 19780
L92833 19828
L92809 19852
L92761 19876
L92714 19876
L92666 19852
L92642 19828
L92619 19780
L92595 19685
L92595 19566
L92619 19471
L92642 19423
L92666 19400
L92714 19376
" />
</g></g>
<g style="fill:#840000; fill-opacity:0.0; 
stroke:#840000; stroke-width:60.000000; stroke-opacity:1; 
stroke-linecap:round; stroke-linejoin:round;">
<path d="M93000 19000
L92000 19000
" />
<path d="M91850 18850
L92150 19150
" />
<path d="M92150 18850
L91850 19150
" />
</g>
<g style="fill:#006464; fill-opacity:0.0; 
stroke:#006464; stroke-width:60.000000; stroke-opacity:1; 
stroke-linecap:round; stroke-linejoin:round;">
<text x="93200.000000" y="19250.000000"
textLength="1083.818898" font-size="666.653543" lengthAdjust="spacingAndGlyphs"
text-anchor="start" opacity="0">NC</text>
<g class="stroked-text"><desc>NC</desc>
<path d="M93349 19226
L93349 18726
L93634 19226
L93634 18726
" />
<path d="M94158 19178
L94134 19202
L94063 19226
L94015 19226
L93944 19202
L93896 19154
L93872 19107
L93849 19011
L93849 18940
L93872 18845
L93896 18797
L93944 18750
L94015 18726
L94063 18726
L94134 18750
L94158 18773
" />
</g></g>
<g style="fill:#A90000; fill-opacity:0.0; 
stroke:#A90000; stroke-width:60.000000; stroke-opacity:1; 
stroke-linecap:round; stroke-linejoin:round;">
<text x="92500.000000" y="18900.000000"
textLength="1012.362205" font-size="666.653543" lengthAdjust="spacingAndGlyphs"
text-anchor="middle" opacity="0">11</text>
<g class="stroked-text"><desc>11</desc>
<path d="M92404 18876
L92119 18876
" />
<path d="M92261 18876
L92261 18376
L92214 18447
L92166 18495
L92119 18519
" />
<path d="M92880 18876
L92595 18876
" />
<path d="M92738 18876
L92738 18376
L92690 18447
L92642 18495
L92595 18519
" />
</g></g>
<g style="fill:#840000; fill-opacity:0.0; 
stroke:#840000; stroke-width:60.000000; stroke-opacity:1; 
stroke-linecap:round; stroke-linejoin:round;">
<path d="M93000 18000
L92000 18000
" />
</g>
<g style="fill:#006464; fill-opacity:0.0; 
stroke:#006464; stroke-width:60.000000; stroke-opacity:1; 
stroke-linecap:round; stroke-linejoin:round;">
<text x="93200.000000" y="18250.000000"
textLength="1393.346457" font-size="666.653543" lengthAdjust="spacingAndGlyphs"
text-anchor="start" opacity="0">ANT</text>
<g class="stroked-text"><desc>ANT</desc>
<path d="M93325 18083
L93563 18083
" />
<path d="M93277 18226
L93444 17726
L93610 18226
" />
<path d="M93777 18226
L93777 17726
L94063 18226
L94063 17726
" />
<path d="M94230 17726
L94515 17726
" />
<path d="M94372 18226
L94372 17726
" />
</g></g>
<g style="fill:#A90000; fill-opacity:0.0; 
stroke:#A90000; stroke-width:60.000000; stroke-opacity:1; 
stroke-linecap:round; stroke-linejoin:round;">
<text x="92500.000000" y="17900.000000"
textLength="1012.362205" font-size="666.653543" lengthAdjust="spacingAndGlyphs"
text-anchor="middle" opacity="0">12</text>
<g class="stroked-text"><desc>12</desc>
<path d="M92404 17876
L92119 17876
" />
<path d="M92261 17876
L92261 17376
L92214 17447
L92166 17495
L92119 17519
" />
<path d="M92595 17423
L92619 17400
L92666 17376
L92785 17376
L92833 17400
L92857 17423
L92880 17471
L92880 17519
L92857 17590
L92571 17876
L92880 17876
" />
</g></g>
<g style="fill:#840000; fill-opacity:0.0; 
stroke:#840000; stroke-width:60.000000; stroke-opacity:1; 
stroke-linecap:round; stroke-linejoin:round;">
<path d="M93000 17000
L92000 17000
" />
<path d="M91850 16850
L92150 17150
" />
<path d="M92150 16850
L91850 17150
" />
</g>
<g style="fill:#006464; fill-opacity:0.0; 
stroke:#006464; stroke-width:60.000000; stroke-opacity:1; 
stroke-linecap:round; stroke-linejoin:round;">
<text x="93200.000000" y="17250.000000"
textLength="1083.818898" font-size="666.653543" lengthAdjust="spacingAndGlyphs"
text-anchor="start" opacity="0">NC</text>
<g class="stroked-text"><desc>NC</desc>
<path d="M93349 17226
L93349 16726
L93634 17226
L93634 16726
" />
<path d="M94158 17178
L94134 17202
L94063 17226
L94015 17226
L93944 17202
L93896 17154
L93872 17107
L93849 17011
L93849 16940
L93872 16845
L93896 16797
L93944 16750
L94015 16726
L94063 16726
L94134 16750
L94158 16773
" />
</g></g>
<g style="fill:#A90000; fill-opacity:0.0; 
stroke:#A90000; stroke-width:60.000000; stroke-opacity:1; 
stroke-linecap:round; stroke-linejoin:round;">
<text x="92500.000000" y="16900.000000"
textLength="1012.362205" font-size="666.653543" lengthAdjust="spacingAndGlyphs"
text-anchor="middle" opacity="0">13</text>
<g class="stroked-text"><desc>13</desc>
<path d="M92404 16876
L92119 16876
" />
<path d="M92261 16876
L92261 16376
L92214 16447
L92166 16495
L92119 16519
" />
<path d="M92571 16376
L92880 16376
L92714 16566
L92785 16566
L92833 16590
L92857 16614
L92880 16661
L92880 16780
L92857 16828
L92833 16852
L92785 16876
L92642 16876
L92595 16852
L92571 16828
" />
</g></g>
<g style="fill:#840000; fill-opacity:0.0; 
stroke:#840000; stroke-width:60.000000; stroke-opacity:1; 
stroke-linecap:round; stroke-linejoin:round;">
<path d="M93000 16000
L92000 16000
" />
<path d="M91850 15850
L92150 16150
" />
<path d="M92150 15850
L91850 16150
" />
</g>
<g style="fill:#006464; fill-opacity:0.0; 
stroke:#006464; stroke-width:60.000000; stroke-opacity:1; 
stroke-linecap:round; stroke-linejoin:round;">
<text x="93200.000000" y="16250.000000"
textLength="1083.818898" font-size="666.653543" lengthAdjust="spacingAndGlyphs"
text-anchor="start" opacity="0">NC</text>
<g class="stroked-text"><desc>NC</desc>
<path d="M93349 16226
L93349 15726
L93634 16226
L93634 15726
" />
<path d="M94158 16178
L94134 16202
L94063 16226
L94015 16226
L93944 16202
L93896 16154
L93872 16107
L93849 16011
L93849 15940
L93872 15845
L93896 15797
L93944 15750
L94015 15726
L94063 15726
L94134 15750
L94158 15773
" />
</g></g>
<g style="fill:#A90000; fill-opacity:0.0; 
stroke:#A90000; stroke-width:60.000000; stroke-opacity:1; 
stroke-linecap:round; stroke-linejoin:round;">
<text x="92500.000000" y="15900.000000"
textLength="1012.362205" font-size="666.653543" lengthAdjust="spacingAndGlyphs"
text-anchor="middle" opacity="0">14</text>
<g class="stroked-text"><desc>14</desc>
<path d="M92404 15876
L92119 15876
" />
<path d="M92261 15876
L92261 15376
L92214 15447
L92166 15495
L92119 15519
" />
<path d="M92833 15542
L92833 15876
" />
<path d="M92714 15352
L92595 15709
L92904 15709
" />
</g></g>
<g style="fill:#840000; fill-opacity:0.0; 
stroke:#840000; stroke-width:60.000000; stroke-opacity:1; 
stroke-linecap:round; stroke-linejoin:round;">
<path d="M93000 15000
L92000 15000
" />
<path d="M91850 14850
L92150 15150
" />
<path d="M92150 14850
L91850 15150
" />
</g>
<g style="fill:#006464; fill-opacity:0.0; 
stroke:#006464; stroke-width:60.000000; stroke-opacity:1; 
stroke-linecap:round; stroke-linejoin:round;">
<text x="93200.000000" y="15250.000000"
textLength="1083.818898" font-size="666.653543" lengthAdjust="spacingAndGlyphs"
text-anchor="start" opacity="0">NC</text>
<g class="stroked-text"><desc>NC</desc>
<path d="M93349 15226
L93349 14726
L93634 15226
L93634 14726
" />
<path d="M94158 15178
L94134 15202
L94063 15226
L94015 15226
L93944 15202
L93896 15154
L93872 15107
L93849 15011
L93849 14940
L93872 14845
L93896 14797
L93944 14750
L94015 14726
L94063 14726
L94134 14750
L94158 14773
" />
</g></g>
<g style="fill:#A90000; fill-opacity:0.0; 
stroke:#A90000; stroke-width:60.000000; stroke-opacity:1; 
stroke-linecap:round; stroke-linejoin:round;">
<text x="92500.000000" y="14900.000000"
textLength="1012.362205" font-size="666.653543" lengthAdjust="spacingAndGlyphs"
text-anchor="middle" opacity="0">15</text>
<g class="stroked-text"><desc>15</desc>
<path d="M92404 14876
L92119 14876
" />
<path d="M92261 14876
L92261 14376
L92214 14447
L92166 14495
L92119 14519
" />
<path d="M92857 14376
L92619 14376
L92595 14614
L92619 14590
L92666 14566
L92785 14566
L92833 14590
L92857 14614
L92880 14661
L92880 14780
L92857 14828
L92833 14852
L92785 14876
L92666 14876
L92619 14852
L92595 14828
" />
</g></g>
<g style="fill:#840000; fill-opacity:0.0; 
stroke:#840000; stroke-width:60.000000; stroke-opacity:1; 
stroke-linecap:round; stroke-linejoin:round;">
<path d="M93000 14000
L92000 14000
" />
</g>
<g style="fill:#006464; fill-opacity:0.0; 
stroke:#006464; stroke-width:60.000000; stroke-opacity:1; 
stroke-linecap:round; stroke-linejoin:round;">
<text x="93200.000000" y="14250.000000"
textLength="1536.181102" font-size="666.653543" lengthAdjust="spacingAndGlyphs"
text-anchor="start" opacity="0">RXD</text>
<g class="stroked-text"><desc>RXD</desc>
<path d="M93634 14226
L93468 13988
" />
<path d="M93349 14226
L93349 13726
L93539 13726
L93587 13750
L93610 13773
L93634 13821
L93634 13892
L93610 13940
L93587 13964
L93539 13988
L93349 13988
" />
<path d="M93801 13726
L94134 14226
" />
<path d="M94134 13726
L93801 14226
" />
<path d="M94325 14226
L94325 13726
L94444 13726
L94515 13750
L94563 13797
L94587 13845
L94610 13940
L94610 14011
L94587 14107
L94563 14154
L94515 14202
L94444 14226
L94325 14226
" />
</g></g>
<g style="fill:#A90000; fill-opacity:0.0; 
stroke:#A90000; stroke-width:60.000000; stroke-opacity:1; 
stroke-linecap:round; stroke-linejoin:round;">
<text x="92500.000000" y="13900.000000"
textLength="1012.362205" font-size="666.653543" lengthAdjust="spacingAndGlyphs"
text-anchor="middle" opacity="0">16</text>
<g class="stroked-text"><desc>16</desc>
<path d="M92404 13876
L92119 13876
" />
<path d="M92261 13876
L92261 13376
L92214 13447
L92166 13495
L92119 13519
" />
<path d="M92833 13376
L92738 13376
L92690 13400
L92666 13423
L92619 13495
L92595 13590
L92595 13780
L92619 13828
L92642 13852
L92690 13876
L92785 13876
L92833 13852
L92857 13828
L92880 13780
L92880 13661
L92857 13614
L92833 13590
L92785 13566
L92690 13566
L92642 13590
L92619 13614
L92595 13661
" />
</g></g>
<g style="fill:#840000; fill-opacity:0.0; 
stroke:#840000; stroke-width:60.000000; stroke-opacity:1; 
stroke-linecap:round; stroke-linejoin:round;">
<path d="M93000 13000
L92000 13000
" />
</g>
<g style="fill:#006464; fill-opacity:0.0; 
stroke:#006464; stroke-width:60.000000; stroke-opacity:1; 
stroke-linecap:round; stroke-linejoin:round;">
<text x="93200.000000" y="13250.000000"
textLength="1417.125984" font-size="666.653543" lengthAdjust="spacingAndGlyphs"
text-anchor="start" opacity="0">TXD</text>
<g class="stroked-text"><desc>TXD</desc>
<path d="M93277 12726
L93563 12726
" />
<path d="M93420 13226
L93420 12726
" />
<path d="M93682 12726
L94015 13226
" />
<path d="M94015 12726
L93682 13226
" />
<path d="M94206 13226
L94206 12726
L94325 12726
L94396 12750
L94444 12797
L94468 12845
L94491 12940
L94491 13011
L94468 13107
L94444 13154
L94396 13202
L94325 13226
L94206 13226
" />
</g></g>
<g style="fill:#A90000; fill-opacity:0.0; 
stroke:#A90000; stroke-width:60.000000; stroke-opacity:1; 
stroke-linecap:round; stroke-linejoin:round;">
<text x="92500.000000" y="12900.000000"
textLength="1012.362205" font-size="666.653543" lengthAdjust="spacingAndGlyphs"
text-anchor="middle" opacity="0">17</text>
<g class="stroked-text"><desc>17</desc>
<path d="M92404 12876
L92119 12876
" />
<path d="M92261 12876
L92261 12376
L92214 12447
L92166 12495
L92119 12519
" />
<path d="M92571 12376
L92904 12376
L92690 12876
" />
</g></g>
<g style="fill:#840000; fill-opacity:0.0; 
stroke:#840000; stroke-width:60.000000; stroke-opacity:1; 
stroke-linecap:round; stroke-linejoin:round;">
<path d="M93000 12000
L92000 12000
" />
</g>
<g style="fill:#006464; fill-opacity:0.0; 
stroke:#006464; stroke-width:60.000000; stroke-opacity:1; 
stroke-linecap:round; stroke-linejoin:round;">
<text x="93200.000000" y="12250.000000"
textLength="1369.527559" font-size="666.653543" lengthAdjust="spacingAndGlyphs"
text-anchor="start" opacity="0">MIC</text>
<g class="stroked-text"><desc>MIC</desc>
<path d="M93349 12226
L93349 11726
L93515 12083
L93682 11726
L93682 12226
" />
<path d="M93920 12226
L93920 11726
" />
<path d="M94444 12178
L94420 12202
L94349 12226
L94301 12226
L94230 12202
L94182 12154
L94158 12107
L94134 12011
L94134 11940
L94158 11845
L94182 11797
L94230 11750
L94301 11726
L94349 11726
L94420 11750
L94444 11773
" />
</g></g>
<g style="fill:#A90000; fill-opacity:0.0; 
stroke:#A90000; stroke-width:60.000000; stroke-opacity:1; 
stroke-linecap:round; stroke-linejoin:round;">
<text x="92500.000000" y="11900.000000"
textLength="1012.362205" font-size="666.653543" lengthAdjust="spacingAndGlyphs"
text-anchor="middle" opacity="0">18</text>
<g class="stroked-text"><desc>18</desc>
<path d="M92404 11876
L92119 11876
" />
<path d="M92261 11876
L92261 11376
L92214 11447
L92166 11495
L92119 11519
" />
<path d="M92690 11590
L92642 11566
L92619 11542
L92595 11495
L92595 11471
L92619 11423
L92642 11400
L92690 11376
L92785 11376
L92833 11400
L92857 11423
L92880 11471
L92880 11495
L92857 11542
L92833 11566
L92785 11590
L92690 11590
L92642 11614
L92619 11638
L92595 11685
L92595 11780
L92619 11828
L92642 11852
L92690 11876
L92785 11876
L92833 11852
L92857 11828
L92880 11780
L92880 11685
L92857 11638
L92833 11614
L92785 11590
" />
</g></g>
<g style="fill:#840000; fill-opacity:0.0; 
stroke:#840000; stroke-width:60.000000; stroke-opacity:1; 
stroke-linecap:round; stroke-linejoin:round;">
<path d="M98000 13000
L99000 13000
" />
<path d="M98850 12850
L99150 13150
" />
<path d="M99150 12850
L98850 13150
" />
</g>
<g style="fill:#006464; fill-opacity:0.0; 
stroke:#006464; stroke-width:60.000000; stroke-opacity:1; 
stroke-linecap:round; stroke-linejoin:round;">
<text x="97800.000000" y="13250.000000"
textLength="1083.818898" font-size="666.653543" lengthAdjust="spacingAndGlyphs"
text-anchor="end" opacity="0">NC</text>
<g class="stroked-text"><desc>NC</desc>
<path d="M96865 13226
L96865 12726
L97150 13226
L97150 12726
" />
<path d="M97674 13178
L97650 13202
L97579 13226
L97531 13226
L97460 13202
L97412 13154
L97389 13107
L97365 13011
L97365 12940
L97389 12845
L97412 12797
L97460 12750
L97531 12726
L97579 12726
L97650 12750
L97674 12773
" />
</g></g>
<g style="fill:#A90000; fill-opacity:0.0; 
stroke:#A90000; stroke-width:60.000000; stroke-opacity:1; 
stroke-linecap:round; stroke-linejoin:round;">
<text x="98500.000000" y="12900.000000"
textLength="536.181102" font-size="666.653543" lengthAdjust="spacingAndGlyphs"
text-anchor="middle" opacity="0">2</text>
<g class="stroked-text"><desc>2</desc>
<path d="M98357 12423
L98380 12400
L98428 12376
L98547 12376
L98595 12400
L98619 12423
L98642 12471
L98642 12519
L98619 12590
L98333 12876
L98642 12876
" />
</g></g>
<g style="fill:#840000; fill-opacity:0.0; 
stroke:#840000; stroke-width:60.000000; stroke-opacity:1; 
stroke-linecap:round; stroke-linejoin:round;">
<path d="M98000 14000
L99000 14000
" />
</g>
<g style="fill:#006464; fill-opacity:0.0; 
stroke:#006464; stroke-width:60.000000; stroke-opacity:1; 
stroke-linecap:round; stroke-linejoin:round;">
<text x="97800.000000" y="14250.000000"
textLength="2726.653543" font-size="666.653543" lengthAdjust="spacingAndGlyphs"
text-anchor="end" opacity="0">AF_OUT</text>
<g class="stroked-text"><desc>AF_OUT</desc>
<path d="M95198 14083
L95436 14083
" />
<path d="M95150 14226
L95317 13726
L95484 14226
" />
<path d="M95817 13964
L95650 13964
" />
<path d="M95650 14226
L95650 13726
L95889 13726
" />
<path d="M95960 14273
L96341 14273
" />
<path d="M96555 13726
L96650 13726
L96698 13750
L96746 13797
L96770 13892
L96770 14059
L96746 14154
L96698 14202
L96650 14226
L96555 14226
L96508 14202
L96460 14154
L96436 14059
L96436 13892
L96460 13797
L96508 13750
L96555 13726
" />
<path d="M96984 13726
L96984 14130
L97008 14178
L97031 14202
L97079 14226
L97174 14226
L97222 14202
L97246 14178
L97270 14130
L97270 13726
" />
<path d="M97436 13726
L97722 13726
" />
<path d="M97579 14226
L97579 13726
" />
</g></g>
<g style="fill:#A90000; fill-opacity:0.0; 
stroke:#A90000; stroke-width:60.000000; stroke-opacity:1; 
stroke-linecap:round; stroke-linejoin:round;">
<text x="98500.000000" y="13900.000000"
textLength="536.181102" font-size="666.653543" lengthAdjust="spacingAndGlyphs"
text-anchor="middle" opacity="0">3</text>
<g class="stroked-text"><desc>3</desc>
<path d="M98333 13376
L98642 13376
L98476 13566
L98547 13566
L98595 13590
L98619 13614
L98642 13661
L98642 13780
L98619 13828
L98595 13852
L98547 13876
L98404 13876
L98357 13852
L98333 13828
" />
</g></g>
<g style="fill:#840000; fill-opacity:0.0; 
stroke:#840000; stroke-width:60.000000; stroke-opacity:1; 
stroke-linecap:round; stroke-linejoin:round;">
<path d="M98000 15000
L99000 15000
" />
<path d="M98850 14850
L99150 15150
" />
<path d="M99150 14850
L98850 15150
" />
</g>
<g style="fill:#006464; fill-opacity:0.0; 
stroke:#006464; stroke-width:60.000000; stroke-opacity:1; 
stroke-linecap:round; stroke-linejoin:round;">
<text x="97800.000000" y="15250.000000"
textLength="1083.818898" font-size="666.653543" lengthAdjust="spacingAndGlyphs"
text-anchor="end" opacity="0">NC</text>
<g class="stroked-text"><desc>NC</desc>
<path d="M96865 15226
L96865 14726
L97150 15226
L97150 14726
" />
<path d="M97674 15178
L97650 15202
L97579 15226
L97531 15226
L97460 15202
L97412 15154
L97389 15107
L97365 15011
L97365 14940
L97389 14845
L97412 14797
L97460 14750
L97531 14726
L97579 14726
L97650 14750
L97674 14773
" />
</g></g>
<g style="fill:#A90000; fill-opacity:0.0; 
stroke:#A90000; stroke-width:60.000000; stroke-opacity:1; 
stroke-linecap:round; stroke-linejoin:round;">
<text x="98500.000000" y="14900.000000"
textLength="536.181102" font-size="666.653543" lengthAdjust="spacingAndGlyphs"
text-anchor="middle" opacity="0">4</text>
<g class="stroked-text"><desc>4</desc>
<path d="M98595 14542
L98595 14876
" />
<path d="M98476 14352
L98357 14709
L98666 14709
" />
</g></g>
<g style="fill:#840000; fill-opacity:0.0; 
stroke:#840000; stroke-width:60.000000; stroke-opacity:1; 
stroke-linecap:round; stroke-linejoin:round;">
<path d="M98000 16000
L99000 16000
" />
</g>
<g style="fill:#006464; fill-opacity:0.0; 
stroke:#006464; stroke-width:60.000000; stroke-opacity:1; 
stroke-linecap:round; stroke-linejoin:round;">
<text x="97800.000000" y="16250.000000"
textLength="1321.889764" font-size="666.653543" lengthAdjust="spacingAndGlyphs"
text-anchor="end" opacity="0">PTT</text>
<g class="stroked-text"><desc>PTT</desc>
<path d="M96627 16226
L96627 15726
L96817 15726
L96865 15750
L96889 15773
L96912 15821
L96912 15892
L96889 15940
L96865 15964
L96817 15988
L96627 15988
" />
<path d="M97055 15726
L97341 15726
" />
<path d="M97198 16226
L97198 15726
" />
<path d="M97436 15726
L97722 15726
" />
<path d="M97579 16226
L97579 15726
" />
</g></g>
<g style="fill:#A90000; fill-opacity:0.0; 
stroke:#A90000; stroke-width:60.000000; stroke-opacity:1; 
stroke-linecap:round; stroke-linejoin:round;">
<text x="98500.000000" y="15900.000000"
textLength="536.181102" font-size="666.653543" lengthAdjust="spacingAndGlyphs"
text-anchor="middle" opacity="0">5</text>
<g class="stroked-text"><desc>5</desc>
<path d="M98619 15376
L98380 15376
L98357 15614
L98380 15590
L98428 15566
L98547 15566
L98595 15590
L98619 15614
L98642 15661
L98642 15780
L98619 15828
L98595 15852
L98547 15876
L98428 15876
L98380 15852
L98357 15828
" />
</g></g>
<g style="fill:#840000; fill-opacity:0.0; 
stroke:#840000; stroke-width:60.000000; stroke-opacity:1; 
stroke-linecap:round; stroke-linejoin:round;">
<path d="M98000 17000
L99000 17000
" />
</g>
<g style="fill:#006464; fill-opacity:0.0; 
stroke:#006464; stroke-width:60.000000; stroke-opacity:1; 
stroke-linecap:round; stroke-linejoin:round;">
<text x="97800.000000" y="17250.000000"
textLength="1060.000000" font-size="666.653543" lengthAdjust="spacingAndGlyphs"
text-anchor="end" opacity="0">PD</text>
<g class="stroked-text"><desc>PD</desc>
<path d="M96889 17226
L96889 16726
L97079 16726
L97127 16750
L97150 16773
L97174 16821
L97174 16892
L97150 16940
L97127 16964
L97079 16988
L96889 16988
" />
<path d="M97389 17226
L97389 16726
L97508 16726
L97579 16750
L97627 16797
L97650 16845
L97674 16940
L97674 17011
L97650 17107
L97627 17154
L97579 17202
L97508 17226
L97389 17226
" />
</g></g>
<g style="fill:#A90000; fill-opacity:0.0; 
stroke:#A90000; stroke-width:60.000000; stroke-opacity:1; 
stroke-linecap:round; stroke-linejoin:round;">
<text x="98500.000000" y="16900.000000"
textLength="536.181102" font-size="666.653543" lengthAdjust="spacingAndGlyphs"
text-anchor="middle" opacity="0">6</text>
<g class="stroked-text"><desc>6</desc>
<path d="M98595 16376
L98500 16376
L98452 16400
L98428 16423
L98380 16495
L98357 16590
L98357 16780
L98380 16828
L98404 16852
L98452 16876
L98547 16876
L98595 16852
L98619 16828
L98642 16780
L98642 16661
L98619 16614
L98595 16590
L98547 16566
L98452 16566
L98404 16590
L98380 16614
L98357 16661
" />
</g></g>
<g style="fill:#840000; fill-opacity:0.0; 
stroke:#840000; stroke-width:60.000000; stroke-opacity:1; 
stroke-linecap:round; stroke-linejoin:round;">
<path d="M98000 18000
L99000 18000
" />
</g>
<g style="fill:#006464; fill-opacity:0.0; 
stroke:#006464; stroke-width:60.000000; stroke-opacity:1; 
stroke-linecap:round; stroke-linejoin:round;">
<text x="97800.000000" y="18250.000000"
textLength="1512.362205" font-size="666.653543" lengthAdjust="spacingAndGlyphs"
text-anchor="end" opacity="0">H/L</text>
<g class="stroked-text"><desc>H/L</desc>
<path d="M96436 18226
L96436 17726
" />
<path d="M96436 17964
L96722 17964
" />
<path d="M96722 18226
L96722 17726
" />
<path d="M97317 17702
L96889 18345
" />
<path d="M97722 18226
L97484 18226
L97484 17726
" />
</g></g>
<g style="fill:#A90000; fill-opacity:0.0; 
stroke:#A90000; stroke-width:60.000000; stroke-opacity:1; 
stroke-linecap:round; stroke-linejoin:round;">
<text x="98500.000000" y="17900.000000"
textLength="536.181102" font-size="666.653543" lengthAdjust="spacingAndGlyphs"
text-anchor="middle" opacity="0">7</text>
<g class="stroked-text"><desc>7</desc>
<path d="M98333 17376
L98666 17376
L98452 17876
" />
</g></g>
<g style="fill:#840000; fill-opacity:0.0; 
stroke:#840000; stroke-width:60.000000; stroke-opacity:1; 
stroke-linecap:round; stroke-linejoin:round;">
<path d="M98000 19000
L99000 19000
" />
</g>
<g style="fill:#006464; fill-opacity:0.0; 
stroke:#006464; stroke-width:60.000000; stroke-opacity:1; 
stroke-linecap:round; stroke-linejoin:round;">
<text x="97800.000000" y="19250.000000"
textLength="1798.110236" font-size="666.653543" lengthAdjust="spacingAndGlyphs"
text-anchor="end" opacity="0">VBAT</text>
<g class="stroked-text"><desc>VBAT</desc>
<path d="M96079 18726
L96246 19226
L96412 18726
" />
<path d="M96746 18964
L96817 18988
L96841 19011
L96865 19059
L96865 19130
L96841 19178
L96817 19202
L96770 19226
L96579 19226
L96579 18726
L96746 18726
L96793 18750
L96817 18773
L96841 18821
L96841 18869
L96817 18916
L96793 18940
L96746 18964
L96579 18964
" />
<path d="M97055 19083
L97293 19083
" />
<path d="M97008 19226
L97174 18726
L97341 19226
" />
<path d="M97436 18726
L97722 18726
" />
<path d="M97579 19226
L97579 18726
" />
</g></g>
<g style="fill:#A90000; fill-opacity:0.0; 
stroke:#A90000; stroke-width:60.000000; stroke-opacity:1; 
stroke-linecap:round; stroke-linejoin:round;">
<text x="98500.000000" y="18900.000000"
textLength="536.181102" font-size="666.653543" lengthAdjust="spacingAndGlyphs"
text-anchor="middle" opacity="0">8</text>
<g class="stroked-text"><desc>8</desc>
<path d="M98452 18590
L98404 18566
L98380 18542
L98357 18495
L98357 18471
L98380 18423
L98404 18400
L98452 18376
L98547 18376
L98595 18400
L98619 18423
L98642 18471
L98642 18495
L98619 18542
L98595 18566
L98547 18590
L98452 18590
L98404 18614
L98380 18638
L98357 18685
L98357 18780
L98380 18828
L98404 18852
L98452 18876
L98547 18876
L98595 18852
L98619 18828
L98642 18780
L98642 18685
L98619 18638
L98595 18614
L98547 18590
" />
</g></g>
<g style="fill:#840000; fill-opacity:0.0; 
stroke:#840000; stroke-width:60.000000; stroke-opacity:1; 
stroke-linecap:round; stroke-linejoin:round;">
<path d="M98000 20000
L99000 20000
" />
</g>
<g style="fill:#006464; fill-opacity:0.0; 
stroke:#006464; stroke-width:60.000000; stroke-opacity:1; 
stroke-linecap:round; stroke-linejoin:round;">
<text x="97800.000000" y="20250.000000"
textLength="1583.818898" font-size="666.653543" lengthAdjust="spacingAndGlyphs"
text-anchor="end" opacity="0">GND</text>
<g class="stroked-text"><desc>GND</desc>
<path d="M96627 19750
L96579 19726
L96508 19726
L96436 19750
L96389 19797
L96365 19845
L96341 19940
L96341 20011
L96365 20107
L96389 20154
L96436 20202
L96508 20226
L96555 20226
L96627 20202
L96650 20178
L96650 20011
L96555 20011
" />
<path d="M96865 20226
L96865 19726
L97150 20226
L97150 19726
" />
<path d="M97389 20226
L97389 19726
L97508 19726
L97579 19750
L97627 19797
L97650 19845
L97674 19940
L97674 20011
L97650 20107
L97627 20154
L97579 20202
L97508 20226
L97389 20226
" />
</g></g>
<g style="fill:#A90000; fill-opacity:0.0; 
stroke:#A90000; stroke-width:60.000000; stroke-opacity:1; 
stroke-linecap:round; stroke-linejoin:round;">
<text x="98500.000000" y="19900.000000"
textLength="536.181102" font-size="666.653543" lengthAdjust="spacingAndGlyphs"
text-anchor="middle" opacity="0">9</text>
<g class="stroked-text"><desc>9</desc>
<path d="M98404 19876
L98500 19876
L98547 19852
L98571 19828
L98619 19757
L98642 19661
L98642 19471
L98619 19423
L98595 19400
L98547 19376
L98452 19376
L98404 19400
L98380 19423
L98357 19471
L98357 19590
L98380 19638
L98404 19661
L98452 19685
L98547 19685
L98595 19661
L98619 19638
L98642 19590
" />
</g></g>
<g style="fill:#006464; fill-opacity:0.0; 
stroke:#006464; stroke-width:60.000000; stroke-opacity:1; 
stroke-linecap:round; stroke-linejoin:round;">
<text x="95500.000000" y="9749.960630"
textLength="1060.000000" font-size="666.653543" lengthAdjust="spacingAndGlyphs"
text-anchor="middle" opacity="0">U1</text>
<g class="stroked-text"><desc>U1</desc>
<path d="M95119 9226
L95119 9630
L95142 9678
L95166 9702
L95214 9726
L95309 9726
L95357 9702
L95380 9678
L95404 9630
L95404 9226
" />
<path d="M95904 9726
L95619 9726
" />
<path d="M95761 9726
L95761 9226
L95714 9297
L95666 9345
L95619 9368
" />
</g><text x="95500.000000" y="10749.960630"
textLength="3345.708661" font-size="666.653543" lengthAdjust="spacingAndGlyphs"
text-anchor="middle" opacity="0">DRA818V</text>
<g class="stroked-text"><desc>DRA818V</desc>
<path d="M93976 10726
L93976 10226
L94095 10226
L94166 10249
L94214 10297
L94238 10345
L94261 10440
L94261 10511
L94238 10607
L94214 10654
L94166 10702
L94095 10726
L93976 10726
" />
<path d="M94761 10726
L94595 10488
" />
<path d="M94476 10726
L94476 10226
L94666 10226
L94714 10249
L94738 10273
L94761 10321
L94761 10392
L94738 10440
L94714 10464
L94666 10488
L94476 10488
" />
<path d="M94952 10583
L95190 10583
" />
<path d="M94904 10726
L95071 10226
L95238 10726
" />
<path d="M95476 10440
L95428 10416
L95404 10392
L95380 10345
L95380 10321
L95404 10273
L95428 10249
L95476 10226
L95571 10226
L95619 10249
L95642 10273
L95666 10321
L95666 10345
L95642 10392
L95619 10416
L95571 10440
L95476 10440
L95428 10464
L95404 10488
L95380 10535
L95380 10630
L95404 10678
L95428 10702
L95476 10726
L95571 10726
L95619 10702
L95642 10678
L95666 10630
L95666 10535
L95642 10488
L95619 10464
L95571 10440
" />
<path d="M96142 10726
L95857 10726
" />
<path d="M96000 10726
L96000 10226
L95952 10297
L95904 10345
L95857 10368
" />
<path d="M96428 10440
L96380 10416
L96357 10392
L96333 10345
L96333 10321
L96357 10273
L96380 10249
L96428 10226
L96523 10226
L96571 10249
L96595 10273
L96619 10321
L96619 10345
L96595 10392
L96571 10416
L96523 10440
L96428 10440
L96380 10464
L96357 10488
L96333 10535
L96333 10630
L96357 10678
L96380 10702
L96428 10726
L96523 10726
L96571 10702
L96595 10678
L96619 10630
L96619 10535
L96595 10488
L96571 10464
L96523 10440
" />
<path d="M96761 10226
L96928 10726
L97095 10226
" />
</g></g>
</g> 
</svg>
